# xmcd
#
# Track frame offsets:
#	150
#	12994
#	24176
#	37033
#	51337
#	63028
#	73730
#	87023
#	102103
#	116073
#	131704
#	148096
#	157320
#	169014
#
# Disc length: 2440 seconds
# Revision: 0
# Processed by: cddbd v1.5.2PL0 Copyright (c) Steve Scherf et al.
# Submitted via: dBpowerAMP V12.0
#
DISCID=c009860e
DTITLE=Tony Holt and The Wildwood Valley Boys - Lost Highways and Treasured Memories
DYEAR=2011
DGENRE=Country
TTITLE0=Get A Little Dirt On Your Hands 
TTITLE1=I'll Be Broken Hearted
TTITLE2=Cherokee Shame
TTITLE3=Just Another Souvenir
TTITLE4=Board That Train And Ride
TTITLE5=I Know That You Know
TTITLE6=A Born Ramblin' Man
TTITLE7=Each Memory Is A Treasure
TTITLE8=Truck Drivin' Jack
TTITLE9=Only In My Dream
TTITLE10=If I Had My Way
TTITLE11=Bringing In That Georgia Mail
TTITLE12=Homeward Bound
TTITLE13=Lost Highway
EXTD=
EXTT0=
EXTT1=
EXTT2=
EXTT3=
EXTT4=
EXTT5=
EXTT6=
EXTT7=
EXTT8=
EXTT9=
EXTT10=
EXTT11=
EXTT12=
EXTT13=
PLAYORDER=
